<svg xmlns="http://www.w3.org/2000/svg" viewBox="0 0 1440 720" font-family="Segoe UI,Inter,Arial,sans-serif">
<rect width="1440" height="720" fill="#0b0e13"/>
<rect x="16" y="16" width="700" height="290" rx="6" fill="#11151b" stroke="#1c2230"/><text x="32" y="40" fill="#dfe3e8" font-size="15" font-weight="600">Service Status breakdown</text><text x="32" y="58" fill="#8a929c" font-size="11">Since 15 minutes ago</text>
<path d="M166.0,84.0 A92,92 0 1 1 76.1,156.5 L113.2,164.6 A54,54 0 1 0 166.0,122.0 Z" fill="#2fb344"/>
<path d="M76.1,156.5 A92,92 0 0 1 150.5,85.3 L156.9,122.8 A54,54 0 0 0 113.2,164.6 Z" fill="#d4711f"/>
<path d="M150.5,85.3 A92,92 0 0 1 166.0,84.0 L166.0,122.0 A54,54 0 0 0 156.9,122.8 Z" fill="#b23bd6"/>
<circle cx="341" cy="86" r="5" fill="#2fb344"/><text x="354" y="90" fill="#dfe3e8" font-size="13">serviceOperational</text><text x="606" y="90" fill="#dfe3e8" font-size="13">29</text><text x="686" y="90" fill="#dfe3e8" font-size="13" text-anchor="end">78.38%</text>
<circle cx="341" cy="116" r="5" fill="#d4711f"/><text x="354" y="120" fill="#dfe3e8" font-size="13">serviceDegradation</text><text x="606" y="120" fill="#dfe3e8" font-size="13">7</text><text x="686" y="120" fill="#dfe3e8" font-size="13" text-anchor="end">18.92%</text>
<circle cx="341" cy="146" r="5" fill="#b23bd6"/><text x="354" y="150" fill="#dfe3e8" font-size="13">serviceInterruption</text><text x="606" y="150" fill="#dfe3e8" font-size="13">1</text><text x="686" y="150" fill="#dfe3e8" font-size="13" text-anchor="end">2.70%</text>
<rect x="732" y="16" width="692" height="290" rx="6" fill="#11151b" stroke="#1c2230"/><text x="748" y="40" fill="#dfe3e8" font-size="15" font-weight="600">Degraded Services Over Time</text><text x="748" y="58" fill="#8a929c" font-size="11">Since 6 hours ago</text>
<rect x="756" y="78" width="644" height="25" fill="#33c5c0"/>
<rect x="756" y="106" width="644" height="25" fill="#7bd14b"/>
<rect x="756" y="134" width="644" height="25" fill="#9b6dff"/>
<rect x="756" y="162" width="644" height="25" fill="#ff8a3c"/>
<rect x="756" y="190" width="644" height="25" fill="#33b1a6"/>
<rect x="756" y="218" width="644" height="25" fill="#ffd23f"/>
<rect x="756" y="246" width="644" height="25" fill="#d6499b"/>
<text x="756" y="290" fill="#8a929c" font-size="10" text-anchor="middle">5p</text><text x="885" y="290" fill="#8a929c" font-size="10" text-anchor="middle">6p</text><text x="1014" y="290" fill="#8a929c" font-size="10" text-anchor="middle">7p</text><text x="1142" y="290" fill="#8a929c" font-size="10" text-anchor="middle">8p</text><text x="1271" y="290" fill="#8a929c" font-size="10" text-anchor="middle">9p</text><text x="1400" y="290" fill="#8a929c" font-size="10" text-anchor="middle">10p</text>
<rect x="16" y="320" width="700" height="326" rx="6" fill="#11151b" stroke="#1c2230"/><text x="32" y="344" fill="#dfe3e8" font-size="15" font-weight="600">Healthy Services</text><text x="32" y="374" fill="#8a929c" font-size="11">service</text><text x="646" y="374" fill="#8a929c" font-size="11">Status</text><rect x="26" y="384" width="680" height="22" fill="#5f9e7f"/><text x="38" y="400" fill="#0c1410" font-size="11.5">Universal Print</text><text x="658" y="400" fill="#0c1410" font-size="11.5">0</text><rect x="26" y="408" width="680" height="22" fill="#5f9e7f"/><text x="38" y="424" fill="#0c1410" font-size="11.5">Productivity Apps</text><text x="658" y="424" fill="#0c1410" font-size="11.5">0</text><rect x="26" y="433" width="680" height="22" fill="#5f9e7f"/><text x="38" y="448" fill="#0c1410" font-size="11.5">Cloud PC</text><text x="658" y="448" fill="#0c1410" font-size="11.5">0</text><rect x="26" y="457" width="680" height="22" fill="#5f9e7f"/><text x="38" y="473" fill="#0c1410" font-size="11.5">Web Forms</text><text x="658" y="473" fill="#0c1410" font-size="11.5">0</text><rect x="26" y="482" width="680" height="22" fill="#5f9e7f"/><text x="38" y="497" fill="#0c1410" font-size="11.5">Device Manager</text><text x="658" y="497" fill="#0c1410" font-size="11.5">0</text><rect x="26" y="506" width="680" height="22" fill="#5f9e7f"/><text x="38" y="522" fill="#0c1410" font-size="11.5">Cloud Storage</text><text x="658" y="522" fill="#0c1410" font-size="11.5">0</text><rect x="26" y="530" width="680" height="22" fill="#5f9e7f"/><text x="38" y="546" fill="#0c1410" font-size="11.5">Media Stream</text><text x="658" y="546" fill="#0c1410" font-size="11.5">0</text><rect x="26" y="555" width="680" height="22" fill="#5f9e7f"/><text x="38" y="570" fill="#0c1410" font-size="11.5">Business Central</text><text x="658" y="570" fill="#0c1410" font-size="11.5">0</text><rect x="26" y="579" width="680" height="22" fill="#5f9e7f"/><text x="38" y="595" fill="#0c1410" font-size="11.5">Directory</text><text x="658" y="595" fill="#0c1410" font-size="11.5">0</text><rect x="26" y="604" width="680" height="22" fill="#5f9e7f"/><text x="38" y="619" fill="#0c1410" font-size="11.5">Bookings</text><text x="658" y="619" fill="#0c1410" font-size="11.5">0</text>
<rect x="732" y="320" width="692" height="250" rx="6" fill="#11151b" stroke="#1c2230"/><text x="748" y="344" fill="#dfe3e8" font-size="15" font-weight="600">Degraded Services</text><text x="748" y="374" fill="#8a929c" font-size="11">service</text><text x="1354" y="374" fill="#8a929c" font-size="11">Status</text><rect x="742" y="384" width="672" height="22" fill="#c2691f"/><text x="754" y="399" fill="#0c1410" font-size="11.5">Core Suite</text><text x="1366" y="399" fill="#0c1410" font-size="11.5">1</text><rect x="742" y="408" width="672" height="22" fill="#c2691f"/><text x="754" y="423" fill="#0c1410" font-size="11.5">Team Messaging</text><text x="1366" y="423" fill="#0c1410" font-size="11.5">1</text><rect x="742" y="432" width="672" height="22" fill="#c2691f"/><text x="754" y="447" fill="#0c1410" font-size="11.5">Document Sites</text><text x="1366" y="447" fill="#0c1410" font-size="11.5">1</text><rect x="742" y="456" width="672" height="22" fill="#c2691f"/><text x="754" y="471" fill="#0c1410" font-size="11.5">Analytics</text><text x="1366" y="471" fill="#0c1410" font-size="11.5">1</text><rect x="742" y="480" width="672" height="22" fill="#c2691f"/><text x="754" y="495" fill="#0c1410" font-size="11.5">Mail Service</text><text x="1366" y="495" fill="#0c1410" font-size="11.5">1</text><rect x="742" y="504" width="672" height="22" fill="#c2691f"/><text x="754" y="519" fill="#0c1410" font-size="11.5">AI Assistant</text><text x="1366" y="519" fill="#0c1410" font-size="11.5">1</text><rect x="742" y="528" width="672" height="22" fill="#c2691f"/><text x="754" y="543" fill="#0c1410" font-size="11.5">Threat Defense</text><text x="1366" y="543" fill="#0c1410" font-size="11.5">1</text>
<rect x="732" y="584" width="692" height="118" rx="6" fill="#11151b" stroke="#1c2230"/><text x="748" y="608" fill="#dfe3e8" font-size="15" font-weight="600">Service Interrupted</text><text x="748" y="640" fill="#8a929c" font-size="11">service</text><text x="1354" y="640" fill="#8a929c" font-size="11">Status</text><rect x="742" y="652" width="672" height="34" fill="#f1a3a3"/><text x="754" y="674" fill="#0c1410" font-size="11.5">Compliance &amp; Audit</text><text x="1366" y="674" fill="#0c1410" font-size="11.5">2</text>
</svg>
