<svg xmlns="http://www.w3.org/2000/svg" viewBox="0 0 800 480" font-family="'JetBrains Mono','SFMono-Regular',monospace">
  <defs>
    <linearGradient id="rev" x1="0" y1="0" x2="0" y2="1">
      <stop offset="0" stop-color="#38bdf8" stop-opacity=".5"/>
      <stop offset="1" stop-color="#38bdf8" stop-opacity="0"/>
    </linearGradient>
  </defs>
  <rect width="800" height="480" fill="#0a0f1c"/>
  <text x="34" y="50" fill="#eef2fa" font-size="22" font-weight="700" font-family="Inter,sans-serif">Invoice AI</text>
  <rect x="150" y="33" width="118" height="24" rx="12" fill="none" stroke="#a78bfa" stroke-opacity=".6"/>
  <circle cx="166" cy="45" r="3.5" fill="#a78bfa"/>
  <text x="178" y="49" fill="#c4b5fd" font-size="11">Gemini 2.0</text>
  <text x="766" y="49" fill="#5c6a80" font-size="12" text-anchor="end" font-family="Inter,sans-serif">Revenue · last 6 months</text>
  <g font-family="Inter,sans-serif">
    <rect x="34" y="74" width="172" height="60" rx="10" fill="#0e1526" stroke="#1d2740"/>
    <text x="48" y="100" fill="#34d399" font-size="22" font-weight="800">$48,200</text>
    <text x="48" y="120" fill="#9aa6be" font-size="11">Collected</text>
    <rect x="218" y="74" width="172" height="60" rx="10" fill="#0e1526" stroke="#1d2740"/>
    <text x="232" y="100" fill="#fbbf24" font-size="22" font-weight="800">$12,650</text>
    <text x="232" y="120" fill="#9aa6be" font-size="11">Outstanding</text>
    <rect x="402" y="74" width="172" height="60" rx="10" fill="#0e1526" stroke="#1d2740"/>
    <text x="416" y="100" fill="#f87171" font-size="22" font-weight="800">$3,400</text>
    <text x="416" y="120" fill="#9aa6be" font-size="11">Overdue</text>
    <rect x="586" y="74" width="180" height="60" rx="10" fill="#0e1526" stroke="#1d2740"/>
    <text x="600" y="100" fill="#38bdf8" font-size="22" font-weight="800">128</text>
    <text x="600" y="120" fill="#9aa6be" font-size="11">Invoices sent</text>
  </g>
  <g>
    <polyline points="34,300 110,288 186,292 262,250 338,262 414,214 490,226 566,176 642,196 718,150 766,158" fill="none" stroke="#38bdf8" stroke-width="3" stroke-linejoin="round" stroke-linecap="round"/>
    <polygon points="34,300 110,288 186,292 262,250 338,262 414,214 490,226 566,176 642,196 718,150 766,158 766,330 34,330" fill="url(#rev)"/>
    <line x1="34" y1="330" x2="766" y2="330" stroke="#1d2740"/>
    <circle cx="718" cy="150" r="5" fill="#38bdf8"/>
    <circle cx="718" cy="150" r="10" fill="#38bdf8" fill-opacity=".18"/>
  </g>
  <g font-family="Inter,sans-serif" font-size="13">
    <text x="34" y="368" fill="#5c6a80" font-size="11" letter-spacing="2">RECENT INVOICES</text>
    <line x1="34" y1="380" x2="766" y2="380" stroke="#161f33"/>
    <circle cx="42" cy="404" r="4" fill="#34d399"/><text x="58" y="408" fill="#cdd6e6">Birchwood Outdoor Co.</text><text x="520" y="408" fill="#9aa6be">INV-1042</text><text x="766" y="408" fill="#eef2fa" text-anchor="end" font-weight="700">$2,400 · Paid</text>
    <line x1="34" y1="420" x2="766" y2="420" stroke="#131c30"/>
    <circle cx="42" cy="444" r="4" fill="#fbbf24"/><text x="58" y="448" fill="#cdd6e6">Mill &amp; Oak Coffee</text><text x="520" y="448" fill="#9aa6be">INV-1043</text><text x="766" y="448" fill="#eef2fa" text-anchor="end" font-weight="700">$880 · Sent</text>
  </g>
</svg>
