<svg xmlns="http://www.w3.org/2000/svg" viewBox="0 0 1440 840" font-family="Segoe UI,Inter,Arial,sans-serif">
<rect width="1440" height="840" fill="#0b0e13"/>
<rect x="16" y="16" width="692" height="400" rx="6" fill="#11151b" stroke="#1c2230"/><text x="32" y="40" fill="#dfe3e8" font-size="15" font-weight="600">Edge Memory %</text><text x="32" y="58" fill="#8a929c" font-size="11">Since 1 hour ago</text>
<line x1="60" y1="74" x2="682" y2="74" stroke="#1b2230"/><line x1="60" y1="116" x2="682" y2="116" stroke="#1b2230"/><line x1="60" y1="159" x2="682" y2="159" stroke="#1b2230"/><line x1="60" y1="201" x2="682" y2="201" stroke="#1b2230"/><line x1="60" y1="244" x2="682" y2="244" stroke="#1b2230"/><line x1="60" y1="286" x2="682" y2="286" stroke="#1b2230"/>
<text x="52" y="290" fill="#8a929c" font-size="10" text-anchor="end">50</text><text x="52" y="248" fill="#8a929c" font-size="10" text-anchor="end">60</text><text x="52" y="205" fill="#8a929c" font-size="10" text-anchor="end">70</text><text x="52" y="163" fill="#8a929c" font-size="10" text-anchor="end">80</text><text x="52" y="120" fill="#8a929c" font-size="10" text-anchor="end">90</text><text x="52" y="78" fill="#8a929c" font-size="10" text-anchor="end">100</text>
<polyline fill="none" stroke="#3aa0ff" stroke-width="1.0" stroke-opacity="0.9" points="60,469 108,467 156,473 204,472 251,474 299,480 347,480 395,485 443,485 491,485 538,485 586,485 634,481 682,485"/>
<polyline fill="none" stroke="#2fb37e" stroke-width="1.0" stroke-opacity="0.9" points="60,465 108,459 156,458 204,459 251,453 299,459 347,454 395,457 443,462 491,467 538,470 586,465 634,470 682,469"/>
<polyline fill="none" stroke="#ffd23f" stroke-width="1.0" stroke-opacity="0.9" points="60,188 108,187 156,193 204,199 251,203 299,201 347,202 395,204 443,203 491,204 538,207 586,203 634,200 682,203"/>
<polyline fill="none" stroke="#ff8a3c" stroke-width="1.0" stroke-opacity="0.9" points="60,191 108,186 156,183 204,186 251,179 299,184 347,185 395,182 443,187 491,187 538,193 586,191 634,187 682,186"/>
<polyline fill="none" stroke="#ef5d6d" stroke-width="1.0" stroke-opacity="0.9" points="60,171 108,168 156,167 204,166 251,166 299,162 347,156 395,156 443,154 491,160 538,157 586,155 634,148 682,144"/>
<polyline fill="none" stroke="#9b6dff" stroke-width="1.0" stroke-opacity="0.9" points="60,215 108,213 156,219 204,220 251,224 299,229 347,235 395,232 443,237 491,240 538,242 586,237 634,242 682,243"/>
<text x="60" y="304" fill="#8a929c" font-size="10" text-anchor="middle">9:45p</text><text x="216" y="304" fill="#8a929c" font-size="10" text-anchor="middle">10:00</text><text x="371" y="304" fill="#8a929c" font-size="10" text-anchor="middle">10:15</text><text x="526" y="304" fill="#8a929c" font-size="10" text-anchor="middle">10:30</text><text x="682" y="304" fill="#8a929c" font-size="10" text-anchor="middle">10:45</text>
<circle cx="36" cy="315" r="3" fill="#3aa0ff"/><text x="44" y="318" fill="#8a929c" font-size="10">HUB-240-CORE-01</text><circle cx="260" cy="315" r="3" fill="#2fb37e"/><text x="268" y="318" fill="#8a929c" font-size="10">HUB-823-CORE-01</text><circle cx="484" cy="315" r="3" fill="#ffd23f"/><text x="492" y="318" fill="#8a929c" font-size="10">HUB-799-CORE-01</text><circle cx="36" cy="331" r="3" fill="#ff8a3c"/><text x="44" y="334" fill="#8a929c" font-size="10">STE-254-EDGE-01</text><circle cx="260" cy="331" r="3" fill="#ef5d6d"/><text x="268" y="334" fill="#8a929c" font-size="10">STE-318-EDGE-01</text><circle cx="484" cy="331" r="3" fill="#9b6dff"/><text x="492" y="334" fill="#8a929c" font-size="10">STE-112-CORE-01</text>
<rect x="732" y="16" width="692" height="400" rx="6" fill="#11151b" stroke="#1c2230"/><text x="748" y="40" fill="#dfe3e8" font-size="15" font-weight="600">Edge CPU %</text><text x="748" y="58" fill="#8a929c" font-size="11">Since 1 hour ago</text>
<line x1="776" y1="74" x2="1398" y2="74" stroke="#1b2230"/><line x1="776" y1="116" x2="1398" y2="116" stroke="#1b2230"/><line x1="776" y1="159" x2="1398" y2="159" stroke="#1b2230"/><line x1="776" y1="201" x2="1398" y2="201" stroke="#1b2230"/><line x1="776" y1="244" x2="1398" y2="244" stroke="#1b2230"/><line x1="776" y1="286" x2="1398" y2="286" stroke="#1b2230"/>
<text x="768" y="290" fill="#8a929c" font-size="10" text-anchor="end">0</text><text x="768" y="248" fill="#8a929c" font-size="10" text-anchor="end">20</text><text x="768" y="205" fill="#8a929c" font-size="10" text-anchor="end">40</text><text x="768" y="163" fill="#8a929c" font-size="10" text-anchor="end">60</text><text x="768" y="120" fill="#8a929c" font-size="10" text-anchor="end">80</text><text x="768" y="78" fill="#8a929c" font-size="10" text-anchor="end">100</text>
<polyline fill="none" stroke="#3aa0ff" stroke-width="1.0" stroke-opacity="0.9" points="776,265 824,266 872,269 920,269 967,268 1015,269 1063,272 1111,269 1159,266 1207,265 1254,263 1302,264 1350,261 1398,258"/>
<polyline fill="none" stroke="#2fb37e" stroke-width="1.0" stroke-opacity="0.9" points="776,264 824,265 872,266 920,266 967,266 1015,269 1063,265 1111,266 1159,268 1207,268 1254,270 1302,270 1350,270 1398,267"/>
<polyline fill="none" stroke="#ffd23f" stroke-width="1.0" stroke-opacity="0.9" points="776,164 824,166 872,167 920,166 967,163 1015,162 1063,162 1111,165 1159,165 1207,162 1254,162 1302,163 1350,166 1398,164"/>
<polyline fill="none" stroke="#ff8a3c" stroke-width="1.0" stroke-opacity="0.9" points="776,159 824,158 872,158 920,160 967,157 1015,158 1063,156 1111,153 1159,152 1207,153 1254,152 1302,155 1350,153 1398,152"/>
<polyline fill="none" stroke="#ef5d6d" stroke-width="1.0" stroke-opacity="0.9" points="776,157 824,159 872,159 920,159 967,158 1015,157 1063,155 1111,153 1159,155 1207,157 1254,158 1302,156 1350,158 1398,158"/>
<polyline fill="none" stroke="#9b6dff" stroke-width="1.0" stroke-opacity="0.9" points="776,156 824,154 872,154 920,156 967,155 1015,156 1063,154 1111,153 1159,154 1207,151 1254,153 1302,156 1350,156 1398,157"/>
<text x="776" y="304" fill="#8a929c" font-size="10" text-anchor="middle">9:45p</text><text x="932" y="304" fill="#8a929c" font-size="10" text-anchor="middle">10:00</text><text x="1087" y="304" fill="#8a929c" font-size="10" text-anchor="middle">10:15</text><text x="1242" y="304" fill="#8a929c" font-size="10" text-anchor="middle">10:30</text><text x="1398" y="304" fill="#8a929c" font-size="10" text-anchor="middle">10:45</text>
<circle cx="752" cy="315" r="3" fill="#3aa0ff"/><text x="760" y="318" fill="#8a929c" font-size="10">POP-739-EDGE-01</text><circle cx="976" cy="315" r="3" fill="#2fb37e"/><text x="984" y="318" fill="#8a929c" font-size="10">POP-768-CORE-01</text><circle cx="1200" cy="315" r="3" fill="#ffd23f"/><text x="1208" y="318" fill="#8a929c" font-size="10">NDE-954-EDGE-01</text><circle cx="752" cy="331" r="3" fill="#ff8a3c"/><text x="760" y="334" fill="#8a929c" font-size="10">POP-901-EDGE-01</text><circle cx="976" cy="331" r="3" fill="#ef5d6d"/><text x="984" y="334" fill="#8a929c" font-size="10">POP-282-CORE-01</text><circle cx="1200" cy="331" r="3" fill="#9b6dff"/><text x="1208" y="334" fill="#8a929c" font-size="10">HUB-188-CORE-01</text>
<rect x="16" y="432" width="692" height="400" rx="6" fill="#11151b" stroke="#1c2230"/><text x="32" y="456" fill="#dfe3e8" font-size="15" font-weight="600">Core Memory %</text><text x="32" y="474" fill="#8a929c" font-size="11">Since 1 hour ago</text>
<line x1="60" y1="490" x2="682" y2="490" stroke="#1b2230"/><line x1="60" y1="532" x2="682" y2="532" stroke="#1b2230"/><line x1="60" y1="575" x2="682" y2="575" stroke="#1b2230"/><line x1="60" y1="617" x2="682" y2="617" stroke="#1b2230"/><line x1="60" y1="660" x2="682" y2="660" stroke="#1b2230"/><line x1="60" y1="702" x2="682" y2="702" stroke="#1b2230"/>
<text x="52" y="706" fill="#8a929c" font-size="10" text-anchor="end">50</text><text x="52" y="664" fill="#8a929c" font-size="10" text-anchor="end">60</text><text x="52" y="621" fill="#8a929c" font-size="10" text-anchor="end">70</text><text x="52" y="579" fill="#8a929c" font-size="10" text-anchor="end">80</text><text x="52" y="536" fill="#8a929c" font-size="10" text-anchor="end">90</text><text x="52" y="494" fill="#8a929c" font-size="10" text-anchor="end">100</text>
<polyline fill="none" stroke="#3aa0ff" stroke-width="1.0" stroke-opacity="0.9" points="60,873 108,879 156,884 204,877 251,883 299,882 347,883 395,881 443,879 491,878 538,878 586,872 634,877 682,876"/>
<polyline fill="none" stroke="#2fb37e" stroke-width="1.0" stroke-opacity="0.9" points="60,884 108,881 156,886 204,883 251,888 299,881 347,885 395,880 443,887 491,891 538,891 586,887 634,889 682,889"/>
<polyline fill="none" stroke="#ffd23f" stroke-width="1.0" stroke-opacity="0.9" points="60,593 108,590 156,585 204,583 251,578 299,578 347,574 395,568 443,573 491,578 538,578 586,573 634,569 682,568"/>
<polyline fill="none" stroke="#ff8a3c" stroke-width="1.0" stroke-opacity="0.9" points="60,597 108,602 156,600 204,605 251,611 299,609 347,608 395,608 443,605 491,599 538,605 586,610 634,616 682,621"/>
<polyline fill="none" stroke="#ef5d6d" stroke-width="1.0" stroke-opacity="0.9" points="60,623 108,618 156,624 204,626 251,620 299,618 347,622 395,625 443,625 491,621 538,621 586,624 634,624 682,619"/>
<polyline fill="none" stroke="#9b6dff" stroke-width="1.0" stroke-opacity="0.9" points="60,575 108,569 156,573 204,574 251,575 299,577 347,579 395,577 443,578 491,582 538,584 586,589 634,586 682,580"/>
<text x="60" y="720" fill="#8a929c" font-size="10" text-anchor="middle">9:45p</text><text x="216" y="720" fill="#8a929c" font-size="10" text-anchor="middle">10:00</text><text x="371" y="720" fill="#8a929c" font-size="10" text-anchor="middle">10:15</text><text x="526" y="720" fill="#8a929c" font-size="10" text-anchor="middle">10:30</text><text x="682" y="720" fill="#8a929c" font-size="10" text-anchor="middle">10:45</text>
<circle cx="36" cy="731" r="3" fill="#3aa0ff"/><text x="44" y="734" fill="#8a929c" font-size="10">HUB-246-CORE-01</text><circle cx="260" cy="731" r="3" fill="#2fb37e"/><text x="268" y="734" fill="#8a929c" font-size="10">STE-578-EDGE-01</text><circle cx="484" cy="731" r="3" fill="#ffd23f"/><text x="492" y="734" fill="#8a929c" font-size="10">NDE-507-CORE-01</text><circle cx="36" cy="747" r="3" fill="#ff8a3c"/><text x="44" y="750" fill="#8a929c" font-size="10">STE-783-EDGE-01</text><circle cx="260" cy="747" r="3" fill="#ef5d6d"/><text x="268" y="750" fill="#8a929c" font-size="10">STE-823-CORE-01</text><circle cx="484" cy="747" r="3" fill="#9b6dff"/><text x="492" y="750" fill="#8a929c" font-size="10">POP-447-CORE-01</text>
<rect x="732" y="432" width="692" height="400" rx="6" fill="#11151b" stroke="#1c2230"/><text x="748" y="456" fill="#dfe3e8" font-size="15" font-weight="600">Core CPU %</text><text x="748" y="474" fill="#8a929c" font-size="11">Since 1 hour ago</text>
<line x1="776" y1="490" x2="1398" y2="490" stroke="#1b2230"/><line x1="776" y1="532" x2="1398" y2="532" stroke="#1b2230"/><line x1="776" y1="575" x2="1398" y2="575" stroke="#1b2230"/><line x1="776" y1="617" x2="1398" y2="617" stroke="#1b2230"/><line x1="776" y1="660" x2="1398" y2="660" stroke="#1b2230"/><line x1="776" y1="702" x2="1398" y2="702" stroke="#1b2230"/>
<text x="768" y="706" fill="#8a929c" font-size="10" text-anchor="end">0</text><text x="768" y="664" fill="#8a929c" font-size="10" text-anchor="end">20</text><text x="768" y="621" fill="#8a929c" font-size="10" text-anchor="end">40</text><text x="768" y="579" fill="#8a929c" font-size="10" text-anchor="end">60</text><text x="768" y="536" fill="#8a929c" font-size="10" text-anchor="end">80</text><text x="768" y="494" fill="#8a929c" font-size="10" text-anchor="end">100</text>
<polyline fill="none" stroke="#3aa0ff" stroke-width="1.0" stroke-opacity="0.9" points="776,688 824,687 872,690 920,689 967,690 1015,693 1063,694 1111,693 1159,693 1207,696 1254,692 1302,690 1350,687 1398,690"/>
<polyline fill="none" stroke="#2fb37e" stroke-width="1.0" stroke-opacity="0.9" points="776,689 824,687 872,689 920,691 967,692 1015,689 1063,687 1111,688 1159,691 1207,688 1254,687 1302,686 1350,689 1398,692"/>
<polyline fill="none" stroke="#ffd23f" stroke-width="1.0" stroke-opacity="0.9" points="776,576 824,579 872,576 920,575 967,573 1015,576 1063,574 1111,577 1159,574 1207,575 1254,576 1302,575 1350,572 1398,574"/>
<polyline fill="none" stroke="#ff8a3c" stroke-width="1.0" stroke-opacity="0.9" points="776,585 824,587 872,590 920,592 967,595 1015,597 1063,598 1111,600 1159,598 1207,599 1254,599 1302,601 1350,602 1398,606"/>
<polyline fill="none" stroke="#ef5d6d" stroke-width="1.0" stroke-opacity="0.9" points="776,587 824,585 872,585 920,587 967,587 1015,584 1063,587 1111,584 1159,585 1207,585 1254,583 1302,583 1350,583 1398,582"/>
<polyline fill="none" stroke="#9b6dff" stroke-width="1.0" stroke-opacity="0.9" points="776,572 824,570 872,568 920,567 967,568 1015,569 1063,572 1111,575 1159,577 1207,576 1254,577 1302,580 1350,583 1398,580"/>
<text x="776" y="720" fill="#8a929c" font-size="10" text-anchor="middle">9:45p</text><text x="932" y="720" fill="#8a929c" font-size="10" text-anchor="middle">10:00</text><text x="1087" y="720" fill="#8a929c" font-size="10" text-anchor="middle">10:15</text><text x="1242" y="720" fill="#8a929c" font-size="10" text-anchor="middle">10:30</text><text x="1398" y="720" fill="#8a929c" font-size="10" text-anchor="middle">10:45</text>
<circle cx="752" cy="731" r="3" fill="#3aa0ff"/><text x="760" y="734" fill="#8a929c" font-size="10">HUB-713-EDGE-01</text><circle cx="976" cy="731" r="3" fill="#2fb37e"/><text x="984" y="734" fill="#8a929c" font-size="10">HUB-146-CORE-01</text><circle cx="1200" cy="731" r="3" fill="#ffd23f"/><text x="1208" y="734" fill="#8a929c" font-size="10">STE-261-CORE-01</text><circle cx="752" cy="747" r="3" fill="#ff8a3c"/><text x="760" y="750" fill="#8a929c" font-size="10">POP-103-CORE-01</text><circle cx="976" cy="747" r="3" fill="#ef5d6d"/><text x="984" y="750" fill="#8a929c" font-size="10">HUB-436-CORE-01</text><circle cx="1200" cy="747" r="3" fill="#9b6dff"/><text x="1208" y="750" fill="#8a929c" font-size="10">STE-135-CORE-01</text>
</svg>
