<svg xmlns="http://www.w3.org/2000/svg" viewBox="0 0 800 480" font-family="'JetBrains Mono','SFMono-Regular',monospace">
  <defs>
    <linearGradient id="cdrop" x1="0" y1="0" x2="0" y2="1">
      <stop offset="0" stop-color="#34d399" stop-opacity=".45"/>
      <stop offset="1" stop-color="#34d399" stop-opacity="0"/>
    </linearGradient>
  </defs>
  <rect width="800" height="480" fill="#0a0f1c"/>
  <text x="34" y="50" fill="#eef2fa" font-size="22" font-weight="700" font-family="Inter,sans-serif">Document Classifier</text>
  <rect x="252" y="33" width="132" height="24" rx="12" fill="none" stroke="#38bdf8" stroke-opacity=".55"/>
  <circle cx="268" cy="45" r="3.5" fill="#38bdf8"/>
  <text x="280" y="49" fill="#7cc4ff" font-size="11">Azure AI Foundry</text>
  <text x="766" y="49" fill="#5c6a80" font-size="12" text-anchor="end" font-family="Inter,sans-serif">Cost per full run</text>
  <g font-family="Inter,sans-serif">
    <rect x="34" y="74" width="172" height="62" rx="10" fill="#0e1526" stroke="#1d2740"/>
    <text x="48" y="100" fill="#9aa6be" font-size="20" font-weight="800" text-decoration="line-through">$320,000</text>
    <text x="48" y="121" fill="#6f7d93" font-size="11">Projected at scale</text>
    <rect x="218" y="74" width="172" height="62" rx="10" fill="#0e1526" stroke="#2b4a4f"/>
    <text x="232" y="100" fill="#34d399" font-size="22" font-weight="800">$285</text>
    <text x="232" y="121" fill="#9aa6be" font-size="11">What we shipped it for</text>
    <rect x="402" y="74" width="172" height="62" rx="10" fill="#0e1526" stroke="#1d2740"/>
    <text x="416" y="100" fill="#38bdf8" font-size="22" font-weight="800">99.9%</text>
    <text x="416" y="121" fill="#9aa6be" font-size="11">Lower cost</text>
    <rect x="586" y="74" width="180" height="62" rx="10" fill="#0e1526" stroke="#1d2740"/>
    <text x="600" y="100" fill="#a78bfa" font-size="22" font-weight="800">98%</text>
    <text x="600" y="121" fill="#9aa6be" font-size="11">Accuracy</text>
  </g>
  <g>
    <polyline points="34,176 150,184 250,196 340,250 420,300 500,322 600,330 766,332" fill="none" stroke="#34d399" stroke-width="3" stroke-linejoin="round" stroke-linecap="round"/>
    <polygon points="34,176 150,184 250,196 340,250 420,300 500,322 600,330 766,332 766,340 34,340" fill="url(#cdrop)"/>
    <line x1="34" y1="340" x2="766" y2="340" stroke="#1d2740"/>
    <circle cx="766" cy="332" r="5" fill="#34d399"/>
    <text x="50" y="168" fill="#6f7d93" font-size="11" font-family="Inter,sans-serif">$4,000 / run before rebuild</text>
  </g>
  <g font-family="Inter,sans-serif" font-size="13">
    <line x1="34" y1="386" x2="766" y2="386" stroke="#161f33"/>
    <text x="34" y="416" fill="#cdd6e6">2,480 contracts</text>
    <circle cx="214" cy="411" r="2.5" fill="#5c6a80"/>
    <text x="230" y="416" fill="#cdd6e6">~7 minutes</text>
    <circle cx="356" cy="411" r="2.5" fill="#5c6a80"/>
    <text x="372" y="416" fill="#cdd6e6">~$0.0012 / doc</text>
    <text x="34" y="448" fill="#6f7d93">Replaced a $4,000 no-code workflow, at 98% accuracy across three audits.</text>
  </g>
</svg>
