<svg xmlns="http://www.w3.org/2000/svg" viewBox="0 0 1440 820" font-family="Segoe UI,Inter,Arial,sans-serif">
<rect width="1440" height="820" fill="#0b0e13"/>
<rect x="16" y="16" width="456" height="390" rx="6" fill="#11151b" stroke="#1c2230"/><text x="32" y="40" fill="#dfe3e8" font-size="15" font-weight="600">OrderRoutingApp</text><text x="32" y="58" fill="#8a929c" font-size="11">Since 1 week ago</text>
<line x1="66" y1="74" x2="452" y2="74" stroke="#1b2230"/><line x1="66" y1="123" x2="452" y2="123" stroke="#1b2230"/><line x1="66" y1="172" x2="452" y2="172" stroke="#1b2230"/><line x1="66" y1="221" x2="452" y2="221" stroke="#1b2230"/><line x1="66" y1="270" x2="452" y2="270" stroke="#1b2230"/>
<text x="58" y="274" fill="#8a929c" font-size="10" text-anchor="end">0</text><text x="58" y="225" fill="#8a929c" font-size="10" text-anchor="end">350</text><text x="58" y="176" fill="#8a929c" font-size="10" text-anchor="end">700</text><text x="58" y="127" fill="#8a929c" font-size="10" text-anchor="end">1050</text><text x="58" y="78" fill="#8a929c" font-size="10" text-anchor="end">1400</text>
<polyline fill="none" stroke="#ffd23f" stroke-width="1.0" stroke-opacity="0.85" points="66,263 86,263 107,266 127,267 147,266 168,267 188,266 208,268 229,266 249,268 269,268 289,268 310,269 330,268 350,269 371,267 391,265 411,181 432,265 452,264"/>
<polyline fill="none" stroke="#ff8a3c" stroke-width="1.0" stroke-opacity="0.85" points="66,249 86,251 107,253 127,253 147,250 168,251 188,251 208,253 229,154 249,256 269,174 289,258 310,258 330,261 350,258 371,256 391,258 411,258 432,257 452,257"/>
<polyline fill="none" stroke="#3aa0ff" stroke-width="1.4" stroke-opacity="0.95" points="66,147 86,141 107,160 127,161 147,157 168,161 188,161 208,156 229,147 249,146 269,149 289,157 310,158 330,162 350,170 371,170 391,160 411,151 432,153 452,145"/>
<text x="66" y="288" fill="#8a929c" font-size="10" text-anchor="middle">Jun 11</text><text x="259" y="288" fill="#8a929c" font-size="10" text-anchor="middle">Jun 15</text><text x="452" y="288" fill="#8a929c" font-size="10" text-anchor="middle">Jun 19</text>
<circle cx="34" cy="313" r="3" fill="#3aa0ff"/><text x="42" y="316" fill="#8a929c" font-size="10">svc-frontend-prod-01</text><circle cx="34" cy="327" r="3" fill="#2fb37e"/><text x="42" y="330" fill="#8a929c" font-size="10">svc-identity-prod</text><circle cx="34" cy="341" r="3" fill="#ffd23f"/><text x="42" y="344" fill="#8a929c" font-size="10">svc-gateway-prod</text>
<rect x="488" y="16" width="456" height="390" rx="6" fill="#11151b" stroke="#1c2230"/><text x="504" y="40" fill="#dfe3e8" font-size="15" font-weight="600">ExpenseApprovalApp</text><text x="504" y="58" fill="#8a929c" font-size="11">Since 1 week ago</text>
<line x1="538" y1="74" x2="924" y2="74" stroke="#1b2230"/><line x1="538" y1="123" x2="924" y2="123" stroke="#1b2230"/><line x1="538" y1="172" x2="924" y2="172" stroke="#1b2230"/><line x1="538" y1="221" x2="924" y2="221" stroke="#1b2230"/><line x1="538" y1="270" x2="924" y2="270" stroke="#1b2230"/>
<text x="530" y="274" fill="#8a929c" font-size="10" text-anchor="end">0</text><text x="530" y="225" fill="#8a929c" font-size="10" text-anchor="end">2250</text><text x="530" y="176" fill="#8a929c" font-size="10" text-anchor="end">4500</text><text x="530" y="127" fill="#8a929c" font-size="10" text-anchor="end">6750</text><text x="530" y="78" fill="#8a929c" font-size="10" text-anchor="end">9000</text>
<polyline fill="none" stroke="#ffd23f" stroke-width="1.0" stroke-opacity="0.85" points="538,269 558,269 579,269 599,269 619,269 640,269 660,270 680,178 701,270 721,270 741,270 761,270 782,270 802,270 822,269 843,269 863,269 883,270 904,269 924,269"/>
<polyline fill="none" stroke="#ff8a3c" stroke-width="1.0" stroke-opacity="0.85" points="538,268 558,268 579,268 599,268 619,268 640,268 660,268 680,268 701,170 721,268 741,269 761,269 782,269 802,269 822,269 843,269 863,269 883,269 904,269 924,269"/>
<polyline fill="none" stroke="#2fb37e" stroke-width="1.4" stroke-opacity="0.95" points="538,149 558,157 579,150 599,152 619,149 640,150 660,154 680,148 701,139 721,146 741,100 761,126 782,136 802,82 822,127 843,136 863,127 883,119 904,118 924,95"/>
<text x="538" y="288" fill="#8a929c" font-size="10" text-anchor="middle">Jun 11</text><text x="731" y="288" fill="#8a929c" font-size="10" text-anchor="middle">Jun 15</text><text x="924" y="288" fill="#8a929c" font-size="10" text-anchor="middle">Jun 19</text>
<circle cx="506" cy="313" r="3" fill="#3aa0ff"/><text x="514" y="316" fill="#8a929c" font-size="10">svc-frontend-prod-01</text><circle cx="506" cy="327" r="3" fill="#2fb37e"/><text x="514" y="330" fill="#8a929c" font-size="10">svc-identity-prod</text><circle cx="506" cy="341" r="3" fill="#ffd23f"/><text x="514" y="344" fill="#8a929c" font-size="10">svc-gateway-prod</text>
<rect x="960" y="16" width="456" height="390" rx="6" fill="#11151b" stroke="#1c2230"/><text x="976" y="40" fill="#dfe3e8" font-size="15" font-weight="600">BillingCycleApp</text><text x="976" y="58" fill="#8a929c" font-size="11">Since 1 week ago</text>
<line x1="1010" y1="74" x2="1396" y2="74" stroke="#1b2230"/><line x1="1010" y1="123" x2="1396" y2="123" stroke="#1b2230"/><line x1="1010" y1="172" x2="1396" y2="172" stroke="#1b2230"/><line x1="1010" y1="221" x2="1396" y2="221" stroke="#1b2230"/><line x1="1010" y1="270" x2="1396" y2="270" stroke="#1b2230"/>
<text x="1002" y="274" fill="#8a929c" font-size="10" text-anchor="end">0</text><text x="1002" y="225" fill="#8a929c" font-size="10" text-anchor="end">300</text><text x="1002" y="176" fill="#8a929c" font-size="10" text-anchor="end">600</text><text x="1002" y="127" fill="#8a929c" font-size="10" text-anchor="end">900</text><text x="1002" y="78" fill="#8a929c" font-size="10" text-anchor="end">1200</text>
<polyline fill="none" stroke="#ffd23f" stroke-width="1.0" stroke-opacity="0.85" points="1010,248 1030,250 1051,248 1071,251 1091,251 1112,248 1132,249 1152,250 1173,189 1193,250 1213,176 1233,249 1254,252 1274,253 1294,252 1315,254 1335,256 1355,254 1376,253 1396,255"/>
<polyline fill="none" stroke="#ff8a3c" stroke-width="1.0" stroke-opacity="0.85" points="1010,247 1030,245 1051,248 1071,247 1091,245 1112,247 1132,250 1152,205 1173,250 1193,249 1213,251 1233,251 1254,250 1274,251 1294,253 1315,255 1335,257 1355,259 1376,258 1396,258"/>
<polyline fill="none" stroke="#ffd23f" stroke-width="1.4" stroke-opacity="0.95" points="1010,157 1030,161 1051,156 1071,157 1091,154 1112,159 1132,157 1152,108 1173,161 1193,162 1213,156 1233,164 1254,170 1274,179 1294,177 1315,179 1335,183 1355,118 1376,183 1396,178"/>
<text x="1010" y="288" fill="#8a929c" font-size="10" text-anchor="middle">Jun 11</text><text x="1203" y="288" fill="#8a929c" font-size="10" text-anchor="middle">Jun 15</text><text x="1396" y="288" fill="#8a929c" font-size="10" text-anchor="middle">Jun 19</text>
<circle cx="978" cy="313" r="3" fill="#3aa0ff"/><text x="986" y="316" fill="#8a929c" font-size="10">svc-frontend-prod-01</text><circle cx="978" cy="327" r="3" fill="#2fb37e"/><text x="986" y="330" fill="#8a929c" font-size="10">svc-identity-prod</text><circle cx="978" cy="341" r="3" fill="#ffd23f"/><text x="986" y="344" fill="#8a929c" font-size="10">svc-gateway-prod</text>
<rect x="16" y="430" width="456" height="390" rx="6" fill="#11151b" stroke="#1c2230"/><text x="32" y="454" fill="#dfe3e8" font-size="15" font-weight="600">TaskRoutingApp</text><text x="32" y="472" fill="#8a929c" font-size="11">Since 1 week ago</text>
<line x1="66" y1="488" x2="452" y2="488" stroke="#1b2230"/><line x1="66" y1="537" x2="452" y2="537" stroke="#1b2230"/><line x1="66" y1="586" x2="452" y2="586" stroke="#1b2230"/><line x1="66" y1="635" x2="452" y2="635" stroke="#1b2230"/><line x1="66" y1="684" x2="452" y2="684" stroke="#1b2230"/>
<text x="58" y="688" fill="#8a929c" font-size="10" text-anchor="end">0</text><text x="58" y="639" fill="#8a929c" font-size="10" text-anchor="end">300</text><text x="58" y="590" fill="#8a929c" font-size="10" text-anchor="end">600</text><text x="58" y="541" fill="#8a929c" font-size="10" text-anchor="end">900</text><text x="58" y="492" fill="#8a929c" font-size="10" text-anchor="end">1200</text>
<polyline fill="none" stroke="#ffd23f" stroke-width="1.0" stroke-opacity="0.85" points="66,676 86,674 107,674 127,673 147,672 168,672 188,673 208,675 229,675 249,674 269,675 289,674 310,676 330,677 350,679 371,682 391,681 411,682 432,683 452,680"/>
<polyline fill="none" stroke="#ff8a3c" stroke-width="1.0" stroke-opacity="0.85" points="66,677 86,678 107,680 127,679 147,679 168,598 188,681 208,683 229,621 249,573 269,593 289,683 310,683 330,681 350,683 371,683 391,683 411,639 432,682 452,683"/>
<polyline fill="none" stroke="#ff8a3c" stroke-width="1.4" stroke-opacity="0.95" points="66,572 86,566 107,563 127,570 147,569 168,528 188,568 208,573 229,563 249,543 269,561 289,570 310,565 330,558 350,560 371,569 391,564 411,558 432,555 452,529"/>
<text x="66" y="702" fill="#8a929c" font-size="10" text-anchor="middle">Jun 11</text><text x="259" y="702" fill="#8a929c" font-size="10" text-anchor="middle">Jun 15</text><text x="452" y="702" fill="#8a929c" font-size="10" text-anchor="middle">Jun 19</text>
<circle cx="34" cy="727" r="3" fill="#3aa0ff"/><text x="42" y="730" fill="#8a929c" font-size="10">svc-frontend-prod-01</text><circle cx="34" cy="741" r="3" fill="#2fb37e"/><text x="42" y="744" fill="#8a929c" font-size="10">svc-identity-prod</text><circle cx="34" cy="755" r="3" fill="#ffd23f"/><text x="42" y="758" fill="#8a929c" font-size="10">svc-gateway-prod</text>
<rect x="488" y="430" width="456" height="390" rx="6" fill="#11151b" stroke="#1c2230"/><text x="504" y="454" fill="#dfe3e8" font-size="15" font-weight="600">AuditTrailApp</text><text x="504" y="472" fill="#8a929c" font-size="11">Since 1 week ago</text>
<line x1="538" y1="488" x2="924" y2="488" stroke="#1b2230"/><line x1="538" y1="537" x2="924" y2="537" stroke="#1b2230"/><line x1="538" y1="586" x2="924" y2="586" stroke="#1b2230"/><line x1="538" y1="635" x2="924" y2="635" stroke="#1b2230"/><line x1="538" y1="684" x2="924" y2="684" stroke="#1b2230"/>
<text x="530" y="688" fill="#8a929c" font-size="10" text-anchor="end">0</text><text x="530" y="639" fill="#8a929c" font-size="10" text-anchor="end">105</text><text x="530" y="590" fill="#8a929c" font-size="10" text-anchor="end">210</text><text x="530" y="541" fill="#8a929c" font-size="10" text-anchor="end">315</text><text x="530" y="492" fill="#8a929c" font-size="10" text-anchor="end">420</text>
<polyline fill="none" stroke="#ffd23f" stroke-width="1.0" stroke-opacity="0.85" points="538,531 558,635 579,638 599,635 619,643 640,636 660,639 680,637 701,635 721,642 741,638 761,635 782,635 802,635 822,635 843,635 863,635 883,640 904,641 924,639"/>
<polyline fill="none" stroke="#ff8a3c" stroke-width="1.0" stroke-opacity="0.85" points="538,646 558,652 579,569 599,652 619,653 640,653 660,608 680,646 701,640 721,635 741,637 761,644 782,647 802,649 822,644 843,644 863,641 883,649 904,655 924,648"/>
<polyline fill="none" stroke="#ef5d6d" stroke-width="1.4" stroke-opacity="0.95" points="538,575 558,527 579,576 599,568 619,569 640,574 660,565 680,565 701,564 721,561 741,567 761,569 782,575 802,577 822,574 843,578 863,561 883,584 904,579 924,583"/>
<text x="538" y="702" fill="#8a929c" font-size="10" text-anchor="middle">Jun 11</text><text x="731" y="702" fill="#8a929c" font-size="10" text-anchor="middle">Jun 15</text><text x="924" y="702" fill="#8a929c" font-size="10" text-anchor="middle">Jun 19</text>
<circle cx="506" cy="727" r="3" fill="#3aa0ff"/><text x="514" y="730" fill="#8a929c" font-size="10">svc-frontend-prod-01</text><circle cx="506" cy="741" r="3" fill="#2fb37e"/><text x="514" y="744" fill="#8a929c" font-size="10">svc-identity-prod</text><circle cx="506" cy="755" r="3" fill="#ffd23f"/><text x="514" y="758" fill="#8a929c" font-size="10">svc-gateway-prod</text>
<rect x="960" y="430" width="456" height="390" rx="6" fill="#11151b" stroke="#1c2230"/><text x="976" y="454" fill="#dfe3e8" font-size="15" font-weight="600">ResourcePlannerApp</text><text x="976" y="472" fill="#8a929c" font-size="11">Since 1 week ago</text>
<line x1="1010" y1="488" x2="1396" y2="488" stroke="#1b2230"/><line x1="1010" y1="537" x2="1396" y2="537" stroke="#1b2230"/><line x1="1010" y1="586" x2="1396" y2="586" stroke="#1b2230"/><line x1="1010" y1="635" x2="1396" y2="635" stroke="#1b2230"/><line x1="1010" y1="684" x2="1396" y2="684" stroke="#1b2230"/>
<text x="1002" y="688" fill="#8a929c" font-size="10" text-anchor="end">0</text><text x="1002" y="639" fill="#8a929c" font-size="10" text-anchor="end">300</text><text x="1002" y="590" fill="#8a929c" font-size="10" text-anchor="end">600</text><text x="1002" y="541" fill="#8a929c" font-size="10" text-anchor="end">900</text><text x="1002" y="492" fill="#8a929c" font-size="10" text-anchor="end">1200</text>
<polyline fill="none" stroke="#ffd23f" stroke-width="1.0" stroke-opacity="0.85" points="1010,669 1030,667 1051,664 1071,662 1091,660 1112,658 1132,657 1152,564 1173,660 1193,659 1213,610 1233,660 1254,663 1274,663 1294,662 1315,569 1335,667 1355,667 1376,668 1396,668"/>
<polyline fill="none" stroke="#ff8a3c" stroke-width="1.0" stroke-opacity="0.85" points="1010,668 1030,670 1051,673 1071,676 1091,678 1112,680 1132,682 1152,680 1173,682 1193,682 1213,681 1233,682 1254,683 1274,683 1294,682 1315,681 1335,682 1355,681 1376,681 1396,600"/>
<polyline fill="none" stroke="#9b6dff" stroke-width="1.4" stroke-opacity="0.95" points="1010,567 1030,563 1051,555 1071,546 1091,550 1112,541 1132,523 1152,542 1173,542 1193,548 1213,540 1233,533 1254,539 1274,546 1294,538 1315,529 1335,546 1355,544 1376,546 1396,540"/>
<text x="1010" y="702" fill="#8a929c" font-size="10" text-anchor="middle">Jun 11</text><text x="1203" y="702" fill="#8a929c" font-size="10" text-anchor="middle">Jun 15</text><text x="1396" y="702" fill="#8a929c" font-size="10" text-anchor="middle">Jun 19</text>
<circle cx="978" cy="727" r="3" fill="#3aa0ff"/><text x="986" y="730" fill="#8a929c" font-size="10">svc-frontend-prod-01</text><circle cx="978" cy="741" r="3" fill="#2fb37e"/><text x="986" y="744" fill="#8a929c" font-size="10">svc-identity-prod</text><circle cx="978" cy="755" r="3" fill="#ffd23f"/><text x="986" y="758" fill="#8a929c" font-size="10">svc-gateway-prod</text>
</svg>
